<?xml version="1.0" standalone="no"?>
<!DOCTYPE svg PUBLIC "-//W3C//DTD SVG 20010904//EN"
 "http://www.w3.org/TR/2001/REC-SVG-20010904/DTD/svg10.dtd">
<svg version="1.0" xmlns="http://www.w3.org/2000/svg"
 width="241.000000pt" height="195.000000pt" viewBox="0 0 241.000000 195.000000"
 preserveAspectRatio="xMidYMid meet">
<metadata>
Created by potrace 1.10, written by Peter Selinger 2001-2011
</metadata>
<g transform="translate(0.000000,195.000000) scale(0.100000,-0.100000)"
fill="#ffffff" stroke="none">
<path d="M1009 1700 c-132 -10 -166 -27 -238 -114 -30 -36 -60 -65 -65 -65
-28 3 -36 -3 -36 -25 0 -14 -4 -28 -10 -31 -5 -3 -65 -11 -132 -16 -170 -14
-255 -34 -291 -70 -26 -26 -28 -35 -27 -91 1 -35 -1 -71 -5 -80 -13 -33 54
-128 91 -128 20 0 24 -5 24 -31 0 -87 60 -172 117 -164 15 2 52 4 81 4 45 1
57 5 75 28 72 88 110 103 179 74 33 -13 67 -17 147 -16 71 1 113 -2 130 -11
14 -8 37 -14 51 -14 17 0 35 -12 54 -36 l28 -36 93 4 c108 4 125 14 150 87
l15 47 153 18 c83 10 159 20 168 22 11 3 19 -7 28 -37 7 -23 23 -52 36 -65 21
-21 34 -24 97 -24 71 0 74 1 95 33 24 35 44 116 36 147 -4 15 6 24 43 42 108
51 134 180 55 272 -9 10 -43 31 -76 46 -60 27 -99 51 -165 102 -54 41 -178 96
-255 114 -83 18 -481 27 -646 14z m521 -20 c176 -18 262 -50 389 -143 l66 -48
-66 2 -65 2 -17 46 c-18 48 -44 74 -87 84 -20 6 -19 4 5 -7 38 -18 59 -42 74
-85 15 -47 15 -48 -19 -60 -18 -6 -28 -6 -25 -1 4 6 13 10 22 10 12 0 14 7 10
36 -12 72 -67 102 -209 112 l-77 5 -4 -69 -3 -69 -2 79 -2 78 40 -4 c22 -2 40
0 40 4 0 5 -20 8 -45 8 l-45 0 0 -107 c0 -60 5 -126 11 -148 7 -22 12 -74 13
-116 0 -62 -4 -87 -28 -142 -39 -92 -78 -92 -48 0 27 81 -5 143 -73 143 -46 0
-68 -22 -99 -94 -23 -54 -32 -66 -51 -66 -21 0 -22 3 -17 45 3 30 1 45 -7 45
-7 0 -11 19 -11 50 0 37 -5 54 -21 69 l-21 19 43 23 c24 12 85 33 134 45 50
13 78 23 64 23 -24 1 -144 -28 -183 -44 -14 -6 -17 -5 -12 3 10 16 4 15 -30
-4 -26 -14 -27 -15 -5 -10 24 5 24 5 5 -15 -17 -17 -38 -20 -168 -24 -135 -4
-146 -3 -134 12 12 15 69 43 85 43 4 -1 -4 -8 -19 -16 -16 -8 -28 -19 -28 -25
0 -5 12 -1 28 10 24 17 172 65 227 74 11 2 29 8 40 13 20 10 147 4 248 -11
l47 -8 0 106 c0 125 17 114 -195 123 -82 4 -152 8 -154 10 -9 8 289 3 379 -6z
m-195 -16 c166 -8 155 -1 155 -102 0 -102 -9 -105 -13 -4 -1 39 -6 74 -10 79
-12 11 -541 18 -534 6 3 -5 -6 -8 -22 -5 -21 3 -37 -4 -65 -28 -47 -42 -46
-57 2 -27 68 44 60 43 412 32 197 -5 189 -4 188 -24 0 -28 8 -71 15 -77 3 -4
0 -12 -7 -20 -10 -10 -22 -11 -47 -4 -19 6 -40 8 -49 5 -9 -3 -31 0 -50 5 -25
7 -36 6 -43 -3 -7 -9 -10 -9 -14 1 -2 6 -16 12 -29 12 -14 0 -23 4 -20 9 4 5
-3 7 -14 4 -12 -3 -20 0 -20 6 0 7 5 9 12 5 7 -4 8 -3 4 4 -5 8 -15 8 -32 2
-29 -11 -254 -9 -248 2 3 4 -2 5 -11 1 -11 -4 -13 -8 -5 -13 7 -5 6 -11 -6
-21 -10 -8 -15 -9 -11 -2 5 8 1 11 -12 10 -14 -1 -17 -5 -11 -12 7 -8 1 -11
-20 -10 -17 1 -30 -2 -30 -7 0 -4 -8 -8 -17 -8 -15 0 -16 2 -3 10 13 9 13 11
0 19 -10 7 -18 4 -28 -10 -7 -11 -18 -17 -23 -14 -5 4 -9 2 -9 -3 0 -13 92
-21 107 -9 7 5 17 6 23 2 5 -3 20 1 32 9 18 13 51 16 154 16 73 0 140 -3 149
-7 21 -7 -52 -31 -194 -64 -68 -16 -103 -30 -125 -50 -28 -24 -41 -28 -109
-31 -42 -1 -77 -2 -77 0 0 22 35 49 97 78 42 19 73 37 70 41 -4 3 -13 1 -20
-6 -8 -6 -21 -9 -29 -6 -9 4 -43 -5 -76 -18 -33 -14 -63 -22 -66 -19 -3 3 -6
-1 -6 -9 0 -8 -9 -25 -19 -38 -18 -23 -22 -24 -201 -27 -100 -2 -186 -7 -191
-10 -16 -10 -9 12 9 29 22 20 67 37 111 42 20 2 60 8 90 14 29 6 70 11 90 10
l36 -1 -45 -14 c-43 -13 -70 -36 -70 -58 0 -6 8 -1 18 10 10 13 57 35 115 54
90 31 100 36 132 80 19 26 46 55 60 64 15 10 23 22 19 29 -4 7 -4 9 0 6 4 -4
21 7 37 22 17 16 37 29 45 29 8 0 14 4 14 10 0 6 25 8 63 5 47 -3 54 -2 27 4
-35 9 121 6 345 -5z m262 -67 c11 4 14 2 9 -5 -5 -9 0 -9 19 -2 34 13 70 13
40 0 -18 -8 -17 -9 8 -9 19 -1 26 -5 21 -13 -4 -7 -3 -8 4 -4 6 4 9 14 6 24
-5 15 -4 15 10 -2 8 -10 19 -15 25 -12 5 3 19 -6 30 -20 21 -27 27 -45 14 -43
-21 3 -26 -2 -13 -12 11 -8 12 -12 2 -16 -6 -2 -10 -9 -6 -14 3 -5 -4 -5 -18
0 -13 4 -40 6 -62 3 -27 -3 -37 -1 -32 7 4 6 1 11 -6 12 -9 0 -10 2 -1 5 7 3
9 12 6 20 -3 7 -9 11 -14 8 -5 -3 -9 -1 -9 5 0 6 -7 7 -17 4 -11 -4 -14 -3 -9
5 5 8 0 12 -13 12 -11 0 -25 10 -32 21 -8 15 -8 19 0 15 6 -4 11 0 12 11 0 10
3 13 5 6 3 -7 12 -9 21 -6z m22 -86 c22 -14 6 -38 -28 -43 -30 -4 -43 11 -34
40 5 14 41 16 62 3z m450 -64 c36 -17 71 -42 79 -54 14 -23 14 -23 -19 -15
-19 4 -67 7 -107 7 -65 0 -70 1 -46 11 16 7 34 10 40 7 7 -2 15 0 18 6 10 16
-52 4 -106 -22 -51 -24 -53 -46 -3 -27 38 14 195 12 225 -3 20 -10 25 -20 23
-45 -3 -74 -32 -121 -87 -142 l-28 -10 6 43 c12 77 -25 119 -88 103 -19 -5
-38 -31 -81 -114 l-56 -108 -167 -18 c-92 -10 -179 -20 -194 -23 -20 -4 -28
-1 -28 9 0 11 30 17 128 27 140 15 283 38 240 40 -33 1 -33 2 -11 44 13 24 17
57 18 129 0 84 -3 100 -22 126 l-22 30 37 16 c22 9 68 15 112 15 65 0 84 -4
139 -32z m-1314 -21 c-27 -13 -63 -38 -78 -55 -15 -17 -32 -29 -38 -25 -25 15
100 101 151 103 8 0 -7 -10 -35 -23z m1033 -11 c28 -33 30 -101 3 -153 -11
-20 -25 -50 -33 -66 -7 -16 -25 -34 -40 -40 -16 -6 -28 -14 -28 -18 0 -12 53
15 74 37 10 11 23 31 29 45 11 25 11 25 14 2 3 -12 -6 -41 -19 -65 l-23 -42
-130 -16 c-72 -9 -132 -15 -134 -12 -3 2 6 29 19 60 28 68 36 138 22 210 -8
46 -7 52 10 56 10 3 18 13 18 23 0 15 9 16 98 11 88 -6 99 -9 120 -32z m-1477
-111 c9 -11 10 -20 2 -32 -15 -24 -44 -27 -59 -7 -28 38 27 75 57 39z m93 10
c22 -9 20 -51 -3 -64 -34 -18 -67 30 -39 58 14 14 20 14 42 6z m522 -25 c-3
-17 -6 -38 -6 -45 0 -20 -451 -16 -458 4 -3 9 46 12 222 12 136 0 226 4 226 9
0 6 -85 8 -223 4 -223 -6 -224 -6 -229 15 -6 22 -5 22 205 24 117 2 225 4 241
5 27 3 28 1 22 -28z m104 16 c26 -31 -13 -82 -44 -56 -21 18 -20 48 2 60 23
14 28 13 42 -4z m114 -1 c19 -18 19 -20 6 -45 -14 -25 -46 -25 -60 0 -5 11
-10 22 -10 25 0 8 31 36 40 36 5 0 16 -7 24 -16z m881 -64 c-3 -5 -16 -5 -31
2 -17 8 -21 14 -12 19 15 9 51 -8 43 -21z m-600 -11 c4 -5 8 -20 9 -33 4 -29
-34 -33 -59 -6 -10 11 -21 17 -26 15 -4 -3 -11 0 -15 6 -4 8 -3 9 4 5 7 -4 12
-2 12 5 0 6 8 18 17 24 18 13 45 6 58 -16z m590 -119 c0 -60 -4 -83 -17 -96
-27 -27 -38 -8 -17 33 21 42 24 79 9 119 -15 38 -21 25 -9 -17 12 -38 -4 -124
-21 -114 -17 11 -12 133 7 161 15 23 17 24 32 9 12 -12 16 -36 16 -95z m-1379
75 c263 -5 416 -3 473 4 47 6 86 9 89 7 5 -6 -7 -78 -16 -93 -5 -8 -70 -13
-213 -15 l-206 -3 -9 40 -9 40 -73 3 c-84 3 -102 -6 -102 -50 l0 -30 -142 7
c-79 4 -149 12 -156 18 -8 6 -23 28 -34 50 -15 30 -16 38 -6 34 8 -3 190 -8
404 -12z m715 -15 c57 -31 66 -153 14 -198 -34 -29 -80 -24 -107 11 -24 30
-22 41 2 17 11 -11 28 -20 38 -20 75 0 97 136 26 168 -13 7 -24 16 -24 22 0
13 26 13 51 0z m-613 -54 l3 -39 -38 6 c-21 4 -57 7 -80 7 -41 0 -43 2 -43 29
0 36 9 40 90 38 l65 -2 3 -39z m608 -17 c18 -52 -11 -109 -55 -109 -16 0 -51
42 -51 61 0 9 12 35 26 57 22 34 30 39 48 33 11 -5 26 -23 32 -42z m558 16
c-4 -8 -2 -15 4 -15 6 0 8 -9 5 -20 -3 -10 5 -35 17 -55 12 -20 21 -37 19 -38
-2 -1 -14 -8 -26 -14 -15 -9 -24 -9 -28 -2 -4 5 -12 8 -18 6 -14 -4 -45 26
-49 50 -1 10 14 36 37 60 45 48 47 49 39 28z m-1376 -66 c78 -1 139 -6 136
-11 -3 -4 -10 -8 -15 -8 -16 0 -59 -52 -52 -63 3 -6 1 -7 -5 -3 -6 3 -16 -3
-22 -14 -9 -17 -21 -20 -85 -20 -40 0 -77 5 -80 10 -4 6 -11 7 -17 4 -6 -4 -8
-2 -5 3 4 6 1 13 -6 16 -10 4 -13 26 -8 83 0 8 5 13 9 10 5 -3 72 -6 150 -7z
m678 -29 c4 -22 11 -40 17 -40 6 0 7 -3 4 -7 -4 -3 6 -17 20 -31 l28 -25 -43
5 c-32 5 -50 15 -72 40 -16 18 -30 30 -30 26 0 -4 -24 1 -52 11 -37 14 -81 20
-147 20 -52 1 -103 3 -113 7 -11 3 -18 0 -18 -7 0 -7 -2 -10 -5 -7 -3 3 -3 12
0 20 5 12 38 15 188 17 100 1 184 4 186 7 15 15 32 -1 37 -36z"/>
<path d="M1611 1646 c2 -2 29 -6 59 -9 36 -4 46 -3 30 3 -25 8 -97 13 -89 6z"/>
<path d="M1379 1415 c-3 -2 -23 -7 -45 -11 -38 -6 -57 -20 -48 -36 10 -15 23
-8 18 10 -5 15 -4 14 10 -2 13 -16 13 -22 3 -34 -10 -13 -9 -14 12 -3 45 25
82 30 134 21 27 -6 52 -8 55 -5 10 10 -21 35 -43 35 -13 0 -25 7 -29 15 -3 8
-11 15 -18 15 -9 0 -9 -3 2 -10 13 -9 13 -11 0 -20 -8 -5 -22 -10 -30 -10 -13
0 -13 1 0 10 12 8 12 10 -5 10 -17 0 -17 2 -5 10 8 5 10 10 4 10 -6 0 -13 -2
-15 -5z"/>
<path d="M1232 1372 l-33 -18 21 -27 c14 -17 19 -34 15 -45 -5 -13 -4 -14 6
-5 10 10 10 18 1 38 -16 35 -15 40 5 24 14 -12 16 -12 8 0 -6 11 -4 13 10 7
15 -5 16 -4 6 8 -7 8 -10 20 -6 26 8 13 6 13 -33 -8z"/>
<path d="M1400 1321 c56 -8 76 -20 101 -57 11 -17 19 -23 19 -13 0 40 -60 79
-120 78 l-45 -2 45 -6z"/>
<path d="M796 1551 c-4 -6 -11 -9 -16 -6 -4 3 -12 -1 -18 -8 -8 -10 -5 -13 14
-15 13 -1 24 3 24 9 0 5 5 7 10 4 6 -4 8 -10 5 -15 -3 -5 -1 -11 4 -14 12 -8
9 13 -6 38 -7 13 -13 15 -17 7z"/>
<path d="M866 1449 c-14 -11 -25 -28 -25 -37 1 -15 2 -15 6 1 2 9 9 14 15 11
7 -5 8 -2 3 6 -5 9 -1 11 16 6 13 -3 18 -3 11 0 -10 5 -10 9 -1 20 17 20 6 17
-25 -7z"/>
<path d="M1824 1426 c1 -9 7 -21 14 -28 14 -14 52 -18 52 -7 0 5 11 11 25 15
14 3 25 10 25 15 0 13 -11 11 -50 -10 -34 -18 -54 -14 -57 12 -1 5 -4 11 -6
14 -3 3 -4 -2 -3 -11z"/>
<path d="M1758 1366 c1 -23 -3 -48 -11 -57 -24 -31 -170 -58 -152 -28 4 5 1 9
-5 9 -7 0 -8 6 -1 19 8 14 7 20 -2 24 -10 4 -14 -9 -16 -45 l-2 -51 70 5 c43
3 82 13 103 25 30 17 33 23 36 75 2 38 -1 57 -10 60 -10 4 -12 -5 -10 -36z"/>
<path d="M1685 1218 c-27 -5 -65 -12 -82 -14 -20 -3 -37 -13 -44 -26 -9 -16
-8 -19 3 -12 7 5 24 7 38 6 20 -2 22 -1 10 8 -11 8 -1 10 43 8 31 -2 57 -1 57
2 0 3 12 13 28 22 30 19 22 20 -53 6z"/>
<path d="M1608 1131 c-26 -4 -50 -10 -53 -13 -10 -9 97 3 115 13 18 10 12 10
-62 0z"/>
<path d="M290 1161 c0 -5 -3 -16 -6 -25 -5 -13 2 -16 35 -16 23 0 41 4 41 9 0
5 3 16 6 25 5 13 -2 16 -35 16 -23 0 -41 -4 -41 -9z"/>
<path d="M1017 1140 c4 -16 14 -20 44 -20 32 0 39 3 39 20 0 17 -7 20 -44 20
-39 0 -44 -2 -39 -20z"/>
<path d="M438 744 c-19 -6 -25 -57 -18 -163 4 -65 8 -76 30 -93 40 -29 60 -15
59 41 l-1 46 -13 -30 c-11 -24 -14 -26 -15 -10 -1 19 -2 19 -9 1 -11 -29 -18
-2 -17 71 1 33 -3 59 -7 56 -5 -3 -1 9 7 26 19 35 31 37 82 16 29 -12 35 -12
31 -2 -10 27 20 13 41 -20 12 -18 17 -33 11 -33 -6 0 -9 -7 -6 -14 4 -10 1
-13 -9 -9 -7 3 -14 0 -14 -6 0 -6 6 -11 13 -11 8 0 8 -3 1 -8 -19 -13 -23 -40
-9 -59 8 -10 14 -25 14 -33 0 -11 -3 -9 -11 5 -15 26 -48 61 -48 51 0 -5 -7
-3 -15 4 -22 18 -18 5 10 -41 14 -22 37 -45 51 -51 21 -10 28 -8 45 8 20 20
20 20 -5 57 -26 37 -26 37 -6 57 28 28 26 82 -4 117 -22 25 -31 28 -97 30 -41
1 -81 -1 -91 -3z"/>
<path d="M693 743 c-20 -7 -17 -195 3 -234 13 -25 20 -30 47 -27 l32 3 3 109
c2 85 -1 114 -13 132 -15 23 -43 29 -72 17z m41 -38 c-4 -8 -1 -15 5 -15 18 0
15 -146 -4 -153 -20 -8 -29 11 -15 28 9 11 10 18 1 29 -6 7 -8 22 -4 31 4 12
3 16 -4 12 -8 -5 -8 2 -1 25 6 18 12 39 14 46 2 6 6 12 8 12 3 0 3 -7 0 -15z"/>
<path d="M830 740 c-12 -7 -15 -31 -15 -114 1 -131 11 -146 92 -146 98 0 144
45 145 142 0 55 -21 94 -63 115 -28 15 -137 17 -159 3z m86 -40 c0 -11 -6 -20
-13 -20 -17 0 -34 -44 -32 -84 3 -51 0 -63 -16 -63 -11 0 -14 6 -9 16 3 9 6
21 5 26 -11 69 -11 115 -1 115 6 0 9 4 5 9 -3 5 3 12 12 14 37 10 49 7 49 -13z
m77 -6 c-2 -6 2 -14 10 -17 10 -4 14 -21 14 -54 0 -26 -2 -42 -4 -35 -3 6 -9
10 -14 6 -12 -7 -11 3 1 27 7 11 7 19 1 19 -5 0 -12 -6 -15 -12 -3 -7 -3 -1 0
13 3 16 1 30 -7 34 -8 6 -10 4 -4 -5 5 -8 4 -11 -3 -6 -17 10 -10 42 9 42 9 0
15 -5 12 -12z m-47 -32 c34 -22 21 -102 -16 -102 -18 0 -20 6 -20 55 0 54 9
66 36 47z m45 -109 c-11 -5 -11 -7 0 -14 10 -6 7 -10 -11 -17 -37 -14 -43 -4
-18 28 16 18 26 24 33 18 7 -7 5 -12 -4 -15z m-83 -14 c-10 -7 -9 -9 5 -9 10
0 15 -4 12 -10 -3 -5 -21 -10 -38 -10 -24 0 -28 3 -17 10 8 5 16 14 16 20 3
18 4 19 20 13 13 -5 13 -7 2 -14z"/>
<path d="M1087 743 c-13 -12 -7 -207 6 -233 11 -22 20 -25 80 -28 81 -4 109 9
105 46 -3 24 -8 27 -47 30 -24 2 -49 1 -57 -2 -21 -8 -6 -35 17 -29 10 3 19 1
19 -3 0 -10 -67 -17 -81 -8 -6 3 -5 12 3 22 11 13 10 15 -4 9 -21 -7 -24 3 -6
21 9 9 9 12 -1 12 -9 0 -11 15 -8 59 3 33 8 65 12 71 7 11 90 8 103 -4 4 -4 2
-6 -3 -5 -12 4 -55 -19 -55 -29 0 -4 23 -5 51 -3 41 2 52 7 61 26 21 47 7 55
-95 55 -52 0 -97 -3 -100 -7z"/>
<path d="M1477 743 c-3 -5 -13 -57 -23 -116 -21 -124 -16 -142 37 -142 32 0
34 2 37 39 2 22 0 51 -3 65 -7 24 -8 23 -21 -18 -7 -25 -10 -49 -7 -54 3 -6 1
-7 -6 -3 -15 9 -6 138 12 178 14 34 31 37 22 6 -6 -23 -6 -23 11 -3 13 16 15
17 11 3 -3 -10 -2 -20 3 -23 6 -4 10 -16 10 -28 0 -12 5 -29 11 -37 9 -13 10
-12 5 3 -3 11 -2 16 4 12 6 -3 10 -13 10 -21 0 -8 5 -14 10 -14 7 0 7 6 2 18
-5 9 -13 35 -16 57 -11 62 -31 85 -71 85 -18 0 -36 -3 -38 -7z"/>
<path d="M1644 742 c-17 -10 -38 -122 -26 -134 10 -10 27 35 23 61 -1 7 2 10
8 7 5 -4 12 3 16 14 3 11 10 20 15 20 5 0 6 -7 3 -17 -4 -10 -2 -14 4 -10 6 4
15 1 20 -6 13 -16 14 -55 2 -62 -12 -8 -12 -26 0 -23 10 3 11 0 11 -42 0 -16
-5 -30 -10 -30 -6 0 -8 12 -4 28 4 21 3 24 -5 12 -9 -12 -11 -10 -11 13 0 15
-4 27 -10 27 -14 0 -12 -94 2 -108 14 -14 47 -15 67 -3 21 13 -5 213 -31 241
-19 20 -53 26 -74 12z"/>
<path d="M1790 631 c0 -144 4 -151 90 -151 68 0 87 6 100 30 19 35 2 50 -56
50 -30 0 -54 5 -54 10 0 6 15 10 34 10 52 0 66 9 66 41 0 28 -2 29 -50 29 -29
0 -50 5 -50 11 0 5 -5 7 -11 3 -8 -4 2 -14 25 -26 l38 -19 -42 -27 c-27 -18
-36 -28 -26 -30 9 -2 16 -8 16 -13 0 -6 3 -8 8 -5 4 2 16 -2 26 -10 17 -12 17
-14 3 -20 -20 -7 -66 3 -84 18 -14 11 -18 32 -5 25 4 -3 6 28 5 69 -1 89 11
106 60 81 31 -15 31 -16 7 -17 -40 -1 -2 -20 41 -20 42 0 59 15 59 52 l0 28
-100 0 -100 0 0 -119z"/>
<path d="M506 673 c1 -13 -2 -21 -6 -18 -5 3 -11 1 -15 -5 -3 -5 -1 -10 6 -10
6 0 17 -7 23 -16 9 -12 17 -13 39 -5 45 17 30 62 -24 73 -22 4 -26 1 -23 -19z
m52 -26 c2 -12 -3 -17 -17 -17 -15 0 -21 6 -21 21 0 25 33 22 38 -4z"/>
<path d="M1166 634 c-3 -7 0 -15 7 -17 9 -3 8 -8 -2 -20 -12 -15 -10 -17 27
-17 24 0 47 7 56 16 18 18 19 24 7 42 -10 16 -89 13 -95 -4z"/>
<path d="M1547 563 c18 -69 28 -83 59 -83 27 0 38 19 47 85 3 22 3 32 1 22 -3
-9 -10 -15 -15 -12 -5 4 -9 -3 -9 -14 0 -24 -16 -36 -26 -20 -4 8 -9 7 -16 -2
-5 -9 -6 -3 -2 16 4 23 3 26 -5 15 -9 -13 -11 -12 -11 5 0 17 -2 17 -10 5 -8
-12 -10 -11 -10 7 0 12 -4 24 -9 27 -5 3 -2 -20 6 -51z"/>
<path d="M332 313 l3 -78 53 -3 c47 -3 53 -1 50 15 -3 13 -12 17 -30 16 -26
-2 -27 0 -30 60 -3 56 -5 62 -26 65 -22 3 -23 2 -20 -75z"/>
<path d="M1207 383 c-4 -3 -7 -39 -7 -80 0 -66 2 -73 20 -73 15 0 20 7 20 25
0 32 9 32 36 -2 14 -18 26 -24 38 -20 17 7 17 9 1 33 -12 19 -14 29 -6 37 18
18 13 65 -8 77 -22 11 -84 14 -94 3z m62 -32 c17 -11 7 -41 -14 -41 -9 0 -15
9 -15 25 0 27 6 30 29 16z"/>
<path d="M1815 365 c-60 -60 4 -163 83 -134 32 12 29 41 -3 33 -33 -8 -55 11
-55 47 0 33 14 44 52 41 18 -2 28 3 28 12 0 34 -72 35 -105 1z"/>
<path d="M1640 317 c0 -70 10 -87 52 -87 33 0 39 25 8 33 -12 3 -20 14 -20 26
0 14 6 21 20 21 14 0 20 7 20 21 0 15 -4 19 -16 15 -11 -4 -18 1 -21 14 -3 11
-14 20 -24 20 -17 0 -19 -8 -19 -63z"/>
<path d="M460 310 c0 -65 15 -82 70 -78 l45 3 0 60 c0 47 -3 60 -15 60 -11 0
-16 -13 -18 -48 -3 -39 -6 -48 -20 -45 -13 2 -18 15 -20 50 -3 39 -6 46 -23
45 -16 -1 -19 -9 -19 -47z"/>
<path d="M612 348 c-9 -9 -7 -17 8 -33 18 -20 19 -23 5 -35 -19 -16 -20 -50 0
-50 7 0 18 8 24 17 9 17 11 16 30 -1 12 -11 27 -16 37 -12 14 5 13 11 -12 43
-15 20 -23 34 -17 30 6 -4 18 2 27 12 15 16 15 19 1 31 -13 11 -18 10 -32 -9
l-15 -22 -19 20 c-23 25 -22 24 -37 9z"/>
<path d="M757 354 c-4 -4 -7 -29 -7 -54 0 -66 26 -84 93 -67 27 7 28 10 25 65
-3 49 -6 57 -23 57 -18 0 -20 -6 -17 -48 3 -42 2 -47 -17 -47 -17 0 -20 7 -23
47 -3 44 -15 62 -31 47z"/>
<path d="M918 349 c-14 -8 -18 -23 -18 -64 0 -48 2 -55 20 -55 17 0 20 7 20
45 0 38 3 45 20 45 13 0 20 7 20 20 0 22 -32 27 -62 9z"/>
<path d="M998 355 c-8 -8 10 -73 29 -102 14 -20 14 -23 -1 -29 -19 -7 -21 -30
-3 -37 23 -8 49 15 73 66 29 63 32 110 7 105 -12 -2 -21 -18 -27 -46 -5 -23
-12 -42 -16 -42 -3 0 -10 19 -16 42 -8 39 -30 59 -46 43z"/>
<path d="M1372 344 c-28 -19 -30 -74 -4 -97 20 -18 92 -23 92 -7 0 6 0 13 0
17 0 4 -16 6 -35 4 -20 -1 -35 2 -35 8 0 6 11 11 24 11 37 0 56 10 56 31 0 20
-36 49 -60 49 -9 0 -26 -7 -38 -16z"/>
<path d="M1508 349 c-14 -8 -18 -23 -18 -64 0 -50 2 -55 23 -55 20 0 22 5 22
47 0 36 4 48 15 48 11 0 16 -13 18 -47 3 -42 6 -48 25 -48 20 0 22 4 19 52 -2
34 -9 58 -20 66 -19 14 -60 15 -84 1z"/>
<path d="M1951 347 c-15 -19 -4 -27 29 -21 15 4 31 1 34 -5 5 -7 -1 -11 -14
-11 -34 0 -60 -19 -60 -44 0 -13 7 -27 16 -30 27 -10 81 -7 92 7 16 20 8 88
-13 103 -24 18 -69 18 -84 1z"/>
<path d="M2110 353 c-22 -9 -26 -19 -29 -73 -2 -48 -1 -50 24 -50 23 0 25 3
25 45 0 39 3 45 21 45 14 0 19 5 17 18 -3 18 -32 25 -58 15z"/>
<path d="M230 295 c0 -11 11 -15 40 -15 29 0 40 4 40 15 0 11 -11 15 -40 15
-29 0 -40 -4 -40 -15z"/>
</g>
</svg>
